# AST/ASF file generated using VICON BodyLanguage
# -----------------------------------------------
:version 1.10
:name VICON
:units
  mass 1.0
  length 0.45
  angle deg
:documentation
   .ast/.asf automatically generated from VICON data using
   VICON BodyBuilder and BodyLanguage model FoxedUp or BRILLIANT.MOD
:root
   order TX TY TZ RX RY RZ
   axis XYZ
   position 0 0 0  
   orientation 0 0 0 
:bonedata
  begin
     id 1 
     name lhipjoint
     direction 0.603808 -0.713975 0.35448 
     length 2.2025 
     axis 0 0 0  XYZ
  end
  begin
     id 2 
     name lfemur
     direction 0.34202 -0.939693 0  
     length 6.55877  
     axis 0 0 20  XYZ
    dof rx ry rz
    limits (-160.0 20.0)
           (-70.0 70.0)
           (-60.0 70.0)
  end
  begin
     id 3 
     name ltibia
     direction 0.34202 -0.939693 0   
     length 6.80302   
     axis 0 0 20   XYZ
    dof rx
    limits (-10.0 170.0)
  end
  begin
     id 4 
     name lfoot
     direction 0.091848 -0.25235 0.963267   
     length 2.03446   
     axis -90 7.62852e-016 20   XYZ
    dof rx rz
    limits (-45.0 90.0)
           (-70.0 20.0)
  end
  begin
     id 5 
     name ltoes
     direction 1.53608e-011 -4.21925e-011 1   
     length 1.02033   
     axis -90 7.62852e-016 20   XYZ
    dof rx
    limits (-90.0 20.0)
  end
  begin
     id 6 
     name rhipjoint
     direction -0.587285 -0.724947 0.359928   
     length 2.16916  
     axis 0 0 0  XYZ 
  end
  begin
     id 7 
     name rfemur
     direction -0.34202 -0.939693 0   
     length 6.43173   
     axis 0 0 -20   XYZ
    dof rx ry rz
    limits (-160.0 20.0)
           (-70.0 70.0)
           (-70.0 60.0)
  end
  begin
     id 8 
     name rtibia
     direction -0.34202 -0.939693 0   
     length 6.70662   
     axis 0 0 -20   XYZ
    dof rx
    limits (-10.0 170.0)
 end
 begin
     id 9 
     name rfoot
     direction -0.11854 -0.325686 0.938018   
     length 2.0773  
     axis -90 -7.62852e-016 -20   XYZ
    dof rx rz
    limits (-45.0 90.0)
           (-20.0 70.0)
  end
  begin
     id 10 
     name rtoes
     direction -1.53547e-011 -4.21838e-011 1   
     length 1.03267   
     axis -90 -7.62852e-016 -20   XYZ
    dof rx
    limits (-90.0 20.0)
  end
  begin
     id 11 
     name lowerback
     direction -0.0286554 0.999539 0.0100613   
     length 2.08751   
     axis 0 0 0   XYZ
    dof rx ry rz
    limits (-20.0 45.0)
           (-30.0 30.0)
           (-30.0 30.0)
  end
  begin
     id 12 
     name upperback
     direction 0.0227093 0.999705 -0.00860929   
     length 2.08517   
     axis 0 0 0   XYZ
    dof rx ry rz
    limits (-20.0 45.0)
           (-30.0 30.0)
           (-30.0 30.0)
  end
  begin
     id 13 
     name thorax
     direction 0.0351627 0.999285 -0.013892   
     length 2.08412   
     axis 0 0 0   XYZ
    dof rx ry rz
    limits (-20.0 45.0)
           (-30.0 30.0)
           (-30.0 30.0)
  end
  begin
     id 14 
     name lowerneck
     direction -0.0696283 0.997344 0.0213922   
     length 1.44164   
     axis 0 0 0   XYZ
    dof rx ry rz
    limits (-20.0 45.0)
           (-30.0 30.0)
           (-30.0 30.0)
  end
  begin
     id 15 
     name upperneck
     direction 0.0531 0.990412 -0.127531   
     length 1.45022   
     axis 0 0 0   XYZ
    dof rx ry rz
    limits (-20.0 45.0)
           (-30.0 30.0)
           (-30.0 30.0)
  end
  begin
     id 16
     name head
     direction 0.0188154 0.998548 -0.0504727  
     length 1.45845  
     axis 0 0 0   XYZ
    dof rx ry rz
    limits (-20.0 45.0)
           (-30.0 30.0)
           (-30.0 30.0)
  end
  begin
     id 17 
     name lclavicle
     direction 0.961559 0.260051 0.088188  
     length 2.86057  
     axis 0 0 0   XYZ
    dof ry rz
    limits (-20.0 10.0)
           (0.0 20.0)
  end
  begin
     id 18 
     name lhumerus
     direction 1 -4.48959e-011 2.88185e-027   
     length 4.36901   
     axis 180 -30 -90   XYZ
    dof rx ry rz
    limits (-60.0 90.0)
           (-90.0 90.0)
           (-90.0 90.0)
  end
  begin
     id 19
     name lradius
     direction 1 -4.48965e-011 -3.92618e-028   
     length 3.21737   
     axis 180 -30 -90   XYZ
    dof rx
    limits (-10.0 170.0)
  end
  begin
     id 20
     name lwrist
     direction 1 -4.49037e-011 2.57246e-027   
     length 1.60869   
     axis -1.61769e-015 90 90   XYZ
    dof ry
    limits (-180.0 0.0)
 end
  begin
     id 21 
     name lhand
     direction 1 -4.48807e-011 5.12958e-027   
     length 0.564313   
     axis -3.27988e-015 90 90   XYZ
    dof rx rz
    limits (-90.0 90.0)
           (-45.0 45.0)
  end
  begin
     id 22 
     name lfingers
     direction 1 -4.48879e-011 1.02687e-026   
     length 0.454963   
     axis -6.5598e-015 90 90   XYZ
    dof rx
    limits (0.0 90.0)
  end
  begin
     id 23
     name lthumb
     direction 0.707107 -6.3475e-011 0.707107   
     length 0.653239   
     axis -90 45 2.19363e-014   XYZ
    dof rx rz
    limits (-45.0 45.0)
           (-45.0 45.0)
  end
  begin
     id 24 
     name rclavicle
     direction -0.954677 0.253915 0.155304   
     length 3.11497  
     axis 0 0 0   XYZ 
    dof ry rz
    limits (-10.0 20.0)
           (-20.0 0.0)
  end
  begin
     id 25 
     name rhumerus
     direction -1 -4.48958e-011 -8.20169e-028  
     length 4.34118   
     axis 180 30 90   XYZ
    dof rx ry rz
    limits (-90.0 60.0)
           (-90.0 90.0)
           (-90.0 90.0)
  end
  begin
     id 26 
     name rradius
     direction -1 -4.48978e-011 1.5676e-027   
     length 3.09531   
     axis 180 30 90   XYZ
    dof rx
    limits (-10.0 170.0)
  end
  begin
     id 27 
     name rwrist
     direction -1 -4.49001e-011 2.57123e-027   
     length 1.54765   
     axis -1.61769e-015 -90 -90   XYZ
    dof ry
    limits (-180.0 0.0)
  end
  begin
     id 28
     name rhand
     direction -1 -4.48847e-011 5.13225e-027   
     length 0.597446   
     axis -3.27988e-015 -90 -90   XYZ
    dof rx rz
    limits (-90.0 90.0)
           (-45.0 45.0)
  end
  begin
     id 29
     name rfingers
     direction -1 -4.49094e-011 1.02974e-026   
     length 0.481677   
     axis -6.5598e-015 -90 -90   XYZ
    dof rx
    limits (0.0 90.0)
  end
  begin
     id 30
     name rthumb
     direction -0.707107 -6.34859e-011 0.707107   
     length 0.691594   
     axis -90 -45 -2.19363e-014   XYZ
    dof rx rz
    limits (-45.0 45.0)
           (-45.0 45.0)
  end
:hierarchy
  begin
    root lhipjoint rhipjoint lowerback
    lhipjoint lfemur
    lfemur ltibia
    ltibia lfoot
    lfoot ltoes
    rhipjoint rfemur
    rfemur rtibia
    rtibia rfoot
    rfoot rtoes
    lowerback upperback
    upperback thorax
    thorax lowerneck lclavicle rclavicle
    lowerneck upperneck
    upperneck head
    lclavicle lhumerus
    lhumerus lradius
    lradius lwrist
    lwrist lhand lthumb
    lhand lfingers
    rclavicle rhumerus
    rhumerus rradius
    rradius rwrist
    rwrist rhand rthumb
    rhand rfingers
  end

#!OML:ASF I:\Acrobat_Osman\acrobat\cartwheel_test 2\Patient 1\Session 1\acrobat.ASF
:FULLY-SPECIFIED
:DEGREES
220
root 8.30962 11.3635 9.34348 -87.1833 13.1929 36.7023
lowerback -4.92289 -12.4166 -9.26375
upperback -10.434 -15.781 9.17462
thorax -3.38657 -7.04755 14.013
lowerneck -8.75978 -1.28588 -11.3325
upperneck -14.8932 -0.66769 7.58275
head -2.95468 -0.181931 4.22455
rclavicle 3.49861e-014 -1.59028e-014
rhumerus -28.7387 -60.6964 26.6069
rradius 56.608
rwrist 4.02219
rhand -51.5515 70.2404
rfingers 7.12502
rthumb -24.0775 41.731
lclavicle 3.49861e-014 -1.59028e-014
lhumerus 54.0924 52.4976 17.4892
lradius 43.4348
lwrist 64.7536
lhand -34.188 51.7031
lfingers 7.12502
lthumb -7.36102 -278.445
rfemur -4.91669 17.1373 -12.4466
rtibia 92.1299
rfoot 1.88723 -10.2167
rtoes -1.09153
lfemur -336.895 25.9572 -353.203
ltibia 81.1705
lfoot 25.7082 -17.044
ltoes -9.30895
221
root 8.20137 11.7301 8.89519 -91.0475 14.9883 35.1533
lowerback -6.609 -12.6082 -10.2388
upperback -11.3737 -15.8125 8.86498
thorax -3.3541 -6.95218 13.9237
lowerneck -9.33669 -1.88097 -11.2365
upperneck -14.4779 -1.38793 7.49415
head -2.6741 -0.520971 4.16314
rclavicle -9.70069e-014 -3.81667e-014
rhumerus -26.8941 -61.7038 24.8542
rradius 60.4368
rwrist 7.82941
rhand -51.4527 71.4804
rfingers 7.12502
rthumb -23.9827 42.9585
lclavicle -9.70069e-014 -3.81667e-014
lhumerus 59.3268 51.5595 21.5845
lradius 43.6463
lwrist 64.6445
lhand -34.1153 50.9815
lfingers 7.12502
lthumb -7.29083 -279.164
rfemur -0.331285 12.0491 -11.424
rtibia 91.7051
rfoot 4.36741 -12.0196
rtoes 9.58724
lfemur -336.738 24.5693 -351.762
ltibia 82.217
lfoot 22.4416 -18.5942
ltoes -18.0493
222
root 8.2212 12.0767 8.41994 -94.7457 16.6109 35.7424
lowerback -7.24485 -11.7381 -9.64073
upperback -11.9069 -14.5923 8.12455
thorax -4.2964 -6.27538 12.9994
lowerneck -10.9193 -2.46974 -9.50718
upperneck -13.3066 -2.33683 5.18442
head -2.28711 -0.988746 3.37083
rclavicle 1.59028e-015 4.45278e-014
rhumerus -24.8896 -64.0423 22.383
rradius 62.8943
rwrist 12.0596
rhand -51.3272 74.5596
rfingers 7.12502
rthumb -23.8624 46.0219
lclavicle 1.59028e-015 4.45278e-014
lhumerus 63.6384 50.2868 25.0907
lradius 43.5349
lwrist 64.1885
lhand -34.0921 49.5891
lfingers 7.12502
lthumb -7.26843 -280.556
rfemur 1.72224 8.54496 -11.4642
rtibia 92.7883
rfoot 6.88609 -12.5186
rtoes 15.7007
lfemur -336.105 24.5044 -350.605
ltibia 84.2412
lfoot 20.3311 -18.8557
ltoes -19.0757
223
root 8.25318 12.3697 7.95172 -98.7802 17.7996 36.0667
lowerback -6.98897 -10.8814 -8.93166
upperback -12.2348 -13.5022 7.48337
thorax -5.40938 -5.68412 12.2293
lowerneck -12.6487 -2.78144 -6.5529
upperneck -12.4835 -3.12371 1.53366
head -1.74446 -1.46978 1.52451
rclavicle -3.18055e-015 -1.90833e-014
rhumerus -22.8649 -65.963 19.4279
rradius 65.7187
rwrist 15.237
rhand -50.9764 77.5899
rfingers 7.12502
rthumb -23.5259 49.0086
lclavicle -3.18055e-015 -1.90833e-014
lhumerus 67.5633 48.899 28.1918
lradius 42.9422
lwrist 63.5024
lhand -34.1297 50.204
lfingers 7.12502
lthumb -7.30481 -279.942
rfemur 3.58026 5.0832 -11.2574
rtibia 94.8142
rfoot 7.40158 -13.3247
rtoes 16.8029
lfemur -336.104 23.6137 -349.884
ltibia 86.5352
lfoot 18.8948 -18.6309
ltoes -17.0511
224
root 8.30526 12.6058 7.50803 -102.693 19.0699 36.8578
lowerback -6.27118 -9.94379 -8.4731
upperback -12.4389 -12.3617 7.00074
thorax -6.53595 -5.06748 11.804
lowerneck -13.9645 -3.12502 -6.0627
upperneck -11.8702 -3.49216 1.76498
head -1.32056 -1.66788 1.47275
rclavicle 1.33583e-013 7.63333e-014
rhumerus -20.8595 -66.9092 16.2434
rradius 68.9257
rwrist 17.2114
rhand -50.4997 79.9059
rfingers 7.12502
rthumb -23.0687 51.2667
lclavicle 1.33583e-013 7.63333e-014
lhumerus 73.4256 47.3001 34.5106
lradius 42.4153
lwrist 61.3988
lhand -33.9363 52.7983
lfingers 7.12502
lthumb -7.11809 -277.341
rfemur 4.70792 2.1784 -11.0636
rtibia 97.211
rfoot 8.32466 -14.1658
rtoes 18.4851
lfemur -336.514 22.8429 -349.712
ltibia 88.5427
lfoot 17.7611 -19.14
ltoes -15.7642
225
root 8.35324 12.8253 7.07158 -106.344 20.4542 37.7417
lowerback -5.71203 -9.13252 -8.28995
upperback -12.59 -11.3697 6.74402
thorax -7.36583 -4.52915 11.6727
lowerneck -15.9576 -3.63719 -7.52802
upperneck -9.75112 -3.69815 3.52905
head -0.231157 -1.70261 2.25835
rclavicle 1.31198e-013 -5.725e-014
rhumerus -17.8014 -67.1188 11.8832
rradius 72.0533
rwrist 18.8449
rhand -50.21 81.9554
rfingers 7.12502
rthumb -22.7907 53.2817
lclavicle 1.31198e-013 -5.725e-014
lhumerus 82.0516 43.9822 43.8073
lradius 40.0878
lwrist 58.4454
lhand -33.5047 51.1141
lfingers 7.12502
lthumb -6.70148 -279.012
rfemur 5.47076 -0.417418 -10.7741
rtibia 99.3265
rfoot 8.90021 -15.2317
rtoes 19.9652
lfemur -337.109 22.2103 -350.044
ltibia 89.6025
lfoot 17.4063 -19.4591
ltoes -14.5774
